# xmcd
#
# Track frame offsets:
#	150
#	13961
#	30124
#	58284
#	85654
#	111834
#	134641
#
# Disc length: 1970 seconds
#
# Revision: 3
# Processed by: cddbd v1.5.2PL0 Copyright (c) Steve Scherf et al.
# Submitted via: audiograbber 1.83.01
#
DISCID=5807b007
DTITLE=89ers - Kingston Town [CDs)
DYEAR=2005
DGENRE=Party Trance
TTITLE0=Kingston Town (Rave Radio Cut)
TTITLE1=Kingston Town (Original Radio Edit)
TTITLE2=Kingston Town (Rave Reggae Mix)
TTITLE3=Kingston Town (Rave Mix)
TTITLE4=Kingston Town (Original Mix)
TTITLE5=Ladie Time (Original)
TTITLE6=Ladies Time (Original Radio Cut)
EXTD=
EXTT0=
EXTT1=
EXTT2=
EXTT3=
EXTT4=
EXTT5=
EXTT6=
PLAYORDER=
